<svg xmlns="http://www.w3.org/2000/svg" width="21.94" height="24" viewBox="0 0 21.94 24">
  <defs>
    <style>
      .cls-1 {
        fill: #222;
        fill-rule: evenodd;
      }
    </style>
  </defs>
  <path id="シェイプ_3" data-name="シェイプ 3" class="cls-1" d="M1020.47,1796.77a21.986,21.986,0,0,0-4.59-2.87,1.9,1.9,0,0,0-2.05,1.28c-0.33.88-.79,0.76-0.79,0.76s-1.76-.82-4.8-4.4-3.55-5.44-3.55-5.44-0.05-.48.88-0.65a1.883,1.883,0,0,0,1.62-1.79,21.963,21.963,0,0,0-2.07-4.98c-0.7-1.04-2.27-.67-2.63-0.46s-4.1,2.15-3.4,6.36a22.911,22.911,0,0,0,14.5,17.08c4.07,1.41,6.62-1.93,6.89-2.24S1021.39,1797.63,1020.47,1796.77Z" transform="translate(-999 -1778)"/>
</svg>
