<svg xmlns="http://www.w3.org/2000/svg" width="24.094" height="19" viewBox="0 0 24.094 19">
  <defs>
    <style>
      .cls-1 {
        fill: #222;
        fill-rule: evenodd;
      }
    </style>
  </defs>
  <path id="シェイプ_2" data-name="シェイプ 2" class="cls-1" d="M659.03,1783.56a3.235,3.235,0,0,0-.655-1.4c-0.067-.08-0.137-0.16-0.214-0.24a3.173,3.173,0,0,0-2.236-.93H638.164a3.137,3.137,0,0,0-2.237.93c-0.076.08-.146,0.16-0.215,0.24a3.216,3.216,0,0,0-.651,1.4,3.257,3.257,0,0,0-.061.62v12.61a3.241,3.241,0,0,0,.263,1.28,3.059,3.059,0,0,0,.664.98,2.864,2.864,0,0,0,.218.21,3.168,3.168,0,0,0,2.019.73h17.761a3.119,3.119,0,0,0,2.022-.74,2.681,2.681,0,0,0,.215-0.2,3.092,3.092,0,0,0,.648-0.94l0.02-.05a3.17,3.17,0,0,0,.259-1.27v-12.61A3.42,3.42,0,0,0,659.03,1783.56Zm-22.392-.53a1.159,1.159,0,0,1,.175-0.21,1.875,1.875,0,0,1,1.351-.57h17.761a1.86,1.86,0,0,1,1.351.57,1.564,1.564,0,0,1,.172.2l0.136,0.19-9.48,8.35a1.6,1.6,0,0,1-2.119,0l-9.471-8.35Zm-0.379,13.88a0.966,0.966,0,0,1-.007-0.12v-12.34l7.357,6.48-7.282,6.42Zm20.614,1.56a1.851,1.851,0,0,1-.948.26H638.164a1.849,1.849,0,0,1-.948-0.26l-0.3-.17,7.525-6.63,0.825,0.72a2.664,2.664,0,0,0,3.556,0l0.824-.72,7.523,6.63Zm0.963-1.68a0.905,0.905,0,0,1,0,.11l-0.066.45-7.286-6.41,7.357-6.49v12.34Z" transform="translate(-635 -1781)"/>
</svg>
